<?xml version="1.0" encoding="utf-8"?>

<!DOCTYPE svg PUBLIC "-//W3C//DTD SVG 1.1//EN" "http://www.w3.org/Graphics/SVG/1.1/DTD/svg11.dtd">
<svg version="1.1" id="Layer_1" xmlns="http://www.w3.org/2000/svg" xmlns:xlink="http://www.w3.org/1999/xlink" x="0px" y="0px"
	 viewBox="0 0 1657.308 1652.937" enable-background="new 0 0 1657.308 1652.937" xml:space="preserve">
<g>
	<path fill="#F07821" stroke="#F07821" d="M554.304,64.421C655.165,32.698,761.924,23.64,867.198,27.194
		c112.008,4.575,224.202,26.452,327.061,71.878c39.968,17.789,78.45,39.132,114.098,64.562
		c28.89,20.112,53.926,45.449,75.384,73.271c13.516,18.533,25.43,38.691,32.095,60.754c13.563,41.57,20.948,85.278,39.736,125.037
		c24.594,55.273,62.449,107.457,116.583,136.742c18.277,10.242,38.343,16.605,58.501,21.947
		c-31.909,28.821-68.975,51.325-106.527,72.017c-13.934,7.989-30.818,13.284-39.643,27.729c-7.037,9.777-8.059,21.97-10.637,33.349
		c-1.974,9.22-1.927,19.044,1.138,28.054c20.855,63.749,48.352,125.199,80.61,183.956c-26.777-0.766-53.066-6.805-78.798-13.888
		c-13.516-3.786-28.937-2.601-40.526,5.829c-9.963,6.201-15.676,16.744-21.134,26.731
		c-68.162-30.028-127.568-77.591-176.849-133.049c-2.438-2.462-4.9-5.04-8.012-6.549c-13.423,0.65-26.498,4.203-39.759,6.178
		c-91.177,14.817-183.445,22.481-275.759,24.455c-15.212,0.557-29.959-3.507-44.752-6.34
		c-52.973-10.869-105.622-23.293-157.782-37.553c-15.351-4.227-30.493-9.29-46.146-12.262c18.045,12.309,37.994,21.436,57.34,31.468
		c13.029,6.874,27.683,10.962,39.155,20.553c-17.209,2.16-34.464-0.348-51.65-1.208c-57.247-4.203-114.354-10.637-170.974-20.205
		c-49.838-8.453-99.398-19.392-147.309-35.648c-22.457-7.641-44.032-17.65-64.353-29.866
		c9.893,91.711-10.079,183.747-40.293,269.953c-17.023,47.678-37.367,94.126-60.475,139.157
		c-9.87,18.927-19.462,38.064-31.073,55.992c-9.591-7.269-20.112-13.47-28.194-22.504c-25.012-26.429-41.129-59.732-56.364-92.384
		C57.477,966.433,35.066,826.324,27.472,687.307c-2.578-66.699-0.673-134.443,16.744-199.26
		c4.157-17.488,11.124-34.209,20.274-49.652c4.296-6.433,9.29-13.261,16.744-16.164c5.945-1.417,12.053,0.581,17.906,1.672
		c16.837,3.6,29.192,19.206,47.168,18.927c24.733,2.764,49.954-14.631,55.482-39.016c19.485-76.197,60.173-146.658,116.049-201.954
		C383.307,136.81,466.657,91.872,554.304,64.421 M649.266,725.208c53.09,17.069,107.967,27.869,162.567,38.97
		c93.894,17.209,188.809,29.215,284.12,34.719c43.939,1.812,87.925,4.761,131.934,2.81c-13.749-19.415-29.726-37.181-42.616-57.247
		c-152.232-1.556-304.162-11.333-456.254-16.814C702.471,726.206,675.857,724.488,649.266,725.208z"/>
	<path fill="#FDE3CC" stroke="#FDE3CC" d="M649.266,725.208c26.591-0.72,53.206,0.999,79.75,2.438
		c152.093,5.481,304.023,15.258,456.254,16.814c12.889,20.065,28.867,37.832,42.616,57.247c-44.009,1.951-87.995-0.999-131.934-2.81
		c-95.311-5.504-190.226-17.511-284.12-34.719C757.233,753.076,702.355,742.277,649.266,725.208z"/>
	<path fill="#FDE3CC" stroke="#FDE3CC" d="M328.29,745.134c20.321,12.216,41.896,22.225,64.353,29.866
		c47.911,16.257,97.47,27.195,147.309,35.648c56.62,9.568,113.727,16.001,170.974,20.205c17.186,0.859,34.441,3.367,51.65,1.208
		c-11.473-9.591-26.127-13.679-39.155-20.553c-19.345-10.033-39.295-19.16-57.34-31.468c15.653,2.973,30.795,8.036,46.146,12.262
		c52.161,14.259,104.809,26.684,157.782,37.553c14.794,2.833,29.541,6.898,44.752,6.34c92.315-1.974,184.583-9.638,275.759-24.455
		c13.261-1.974,26.336-5.527,39.759-6.178c3.112,1.51,5.574,4.087,8.012,6.549c49.281,55.458,108.687,103.021,176.849,133.049
		c-2.462,10.311-4.157,21.041-2.183,31.608c6.34,34.72,8.755,70.089,8.662,105.366c1.254,86.88-20.065,173.946-61.311,250.422
		c-22.666,40.734-51.185,78.055-83.699,111.405c-24.71,23.688-51.65,45.031-80.308,63.703
		c-70.624,44.52-151.303,71.158-233.329,84.767c-51.789,8.593-103.346,18.556-155.321,25.895
		c-49.002,7.943-98.887,9.522-148.423,7.106c-47.841-2.903-94.776-14.84-139.296-32.304
		c-115.585-44.845-211.94-134.791-268.421-244.755c-8.546-16.28-16.907-32.862-21.598-50.721
		c-5.318-18.649-9.313-37.715-15.885-55.969c-3.948-11.473-10.962-21.436-17.58-31.445c11.612-17.929,21.203-37.065,31.073-55.992
		c23.108-45.031,43.452-91.479,60.475-139.157C318.211,928.88,338.183,836.845,328.29,745.134 M1064.252,867.035
		c-6.387,9.197-7.733,20.762-6.642,31.677c12.239-8.477,23.688-19.299,38.784-22.318c15.537-3.158,30.446,4.134,45.054,8.384
		c-2.322-16.582-14.817-31.283-31.166-35.323C1093.258,844.439,1073.727,852.126,1064.252,867.035 M446.685,957.887
		c-15.072,8.755-22.434,27.172-19.554,44.148c12.518-8.268,23.967-19.601,39.341-22.086c15.397-2.601,29.936,4.459,44.474,8.314
		c-1.974-7.757-4.598-15.606-10.079-21.645C488.139,950.943,463.708,947.065,446.685,957.887 M1109.166,1079.185
		c-8.662,12.216-11.356,27.729-10.822,42.453c1.417,19.694,7.943,40.131,22.573,54.042c7.966,7.733,20.065,12.68,31.004,8.778
		c12.866-4.25,20.251-17.325,23.526-29.703c4.715-19.903,2.555-41.524-6.526-59.917c-0.813-6.015-2.253-12.193-5.69-17.255
		c-2.531-3.786-7.548-3.925-11.403-5.365c-6.038-2.671-12.053-6.177-18.834-6.224
		C1123.426,1065.854,1114.508,1071.451,1109.166,1079.185 M473.531,1191.286c-7.687,17.975-7.408,38.691-1.695,57.2
		c4.436,14.004,12.262,27.729,24.849,35.881c7.176,4.877,16.559,6.131,24.85,3.716c11.519-4.087,18.672-15.258,22.248-26.405
		c6.456-20.925,3.762-44.265-5.945-63.749c0.952-10.497-6.387-23.177-18.393-20.135l1.115-1.974
		c-6.061-2.88-12.192-6.549-19.183-5.922C488.418,1169.641,478.432,1180.231,473.531,1191.286 M1029.555,1283.066
		c-11.147,2.833-23.015,2.996-33.512,8.012c-16.837,7.687-29.889,21.134-43.684,33.071c-18.626,16.651-38.807,31.677-60.684,43.823
		c-25.5,13.865-54.901,18.068-83.606,18.138c-17.255,1.254-35.881-1.649-51.766,6.781c-13.145,7.037-16.884,22.666-19.531,36.136
		c-4.947,21.529,2.973,44.055,16.257,61.032c18.115,23.386,46.54,37.808,75.826,40.409c34.139,3.205,67.93-8.802,96.425-26.917
		c30.307-18.37,53.484-45.704,75.593-72.876c22.481-28.821,43.08-60.266,53.09-95.752c3.646-14.91,6.99-32.536-2.044-46.169
		C1047.089,1281.325,1037.312,1280.86,1029.555,1283.066z"/>
	<path fill="#2E2E61" stroke="#2E2E61" d="M1064.252,867.035c9.475-14.91,29.006-22.597,46.03-17.58
		c16.349,4.041,28.844,18.742,31.166,35.323c-14.608-4.25-29.517-11.542-45.054-8.384c-15.095,3.019-26.545,13.841-38.784,22.318
		C1056.518,887.797,1057.865,876.232,1064.252,867.035z"/>
	<path fill="#2E2E62" stroke="#2E2E62" d="M446.685,957.887c17.023-10.822,41.454-6.944,54.181,8.732
		c5.481,6.038,8.105,13.888,10.079,21.645c-14.538-3.855-29.076-10.915-44.474-8.314c-15.374,2.485-26.823,13.818-39.341,22.086
		C424.25,985.059,431.612,966.642,446.685,957.887z"/>
	<path fill="#231F20" stroke="#231F20" d="M1109.166,1079.185c5.342-7.733,14.26-13.33,23.828-13.191
		c6.781,0.047,12.796,3.553,18.834,6.224c-3.762,5.388-7.873,11.589-6.363,18.533c0.929,7.037,4.947,15.606,12.866,16.442
		c6.503-0.255,8.198-7.617,10.59-12.355c9.081,18.393,11.24,40.015,6.526,59.917c-3.274,12.378-10.66,25.453-23.526,29.703
		c-10.938,3.902-23.038-1.045-31.004-8.778c-14.631-13.911-21.157-34.348-22.573-54.042
		C1097.81,1106.914,1100.504,1091.4,1109.166,1079.185z"/>
	<path fill="#FDFCFC" stroke="#FDFCFC" d="M1151.828,1072.218c3.855,1.44,8.872,1.579,11.403,5.365
		c3.437,5.063,4.877,11.24,5.69,17.255c-2.392,4.738-4.087,12.1-10.59,12.355c-7.919-0.836-11.937-9.406-12.866-16.442
		C1143.956,1083.806,1148.066,1077.605,1151.828,1072.218z"/>
	<path fill="#231F20" stroke="#231F20" d="M473.531,1191.286c4.9-11.054,14.886-21.645,27.845-21.389
		c6.99-0.627,13.122,3.042,19.183,5.922l-1.115,1.974c-6.433,8.57-6.34,21.482,0.952,29.494c2.833,3.46,8.43,4.529,12.053,1.719
		c2.903-3.066,3.878-7.316,5.388-11.078c9.708,19.485,12.401,42.825,5.945,63.749c-3.576,11.147-10.729,22.318-22.248,26.405
		c-8.291,2.415-17.673,1.161-24.85-3.716c-12.587-8.152-20.414-21.877-24.849-35.881
		C466.123,1229.977,465.844,1209.261,473.531,1191.286z"/>
	<path fill="#FDFDFD" stroke="#FDFDFD" d="M519.445,1177.793c12.007-3.042,19.345,9.638,18.393,20.135
		c-1.51,3.762-2.485,8.012-5.388,11.078c-3.623,2.81-9.22,1.742-12.053-1.719C513.105,1199.275,513.012,1186.363,519.445,1177.793z"
		/>
	<path fill="#E40B40" stroke="#E40B40" d="M1029.555,1283.066c7.757-2.206,17.534-1.742,22.365,5.69
		c9.034,13.632,5.69,31.259,2.044,46.169c-10.01,35.486-30.609,66.931-53.09,95.752c-22.109,27.172-45.286,54.506-75.593,72.876
		c-28.496,18.115-62.286,30.121-96.425,26.917c-29.285-2.601-57.711-17.023-75.826-40.409
		c-13.284-16.977-21.203-39.504-16.257-61.032c2.647-13.47,6.387-29.099,19.531-36.136c15.885-8.43,34.51-5.527,51.766-6.781
		c28.705-0.07,58.106-4.273,83.606-18.138c21.877-12.146,42.058-27.172,60.684-43.823c13.795-11.937,26.847-25.384,43.684-33.071
		C1006.541,1286.062,1018.408,1285.9,1029.555,1283.066z"/>
</g>
</svg>
