<svg id="Слой_1" data-name="Слой 1" xmlns="http://www.w3.org/2000/svg" viewBox="0 0 595.28 595.28"><defs><style>.cls-1{fill:#fff;}</style></defs><title>BB_logos</title><path class="cls-1" d="M119.58,399.17V196.11h90.3q69.76,0,69.77,49.83,0,35.42-42.1,45.37,50.71,10.13,50.72,53.86,0,54-68.28,54Zm58.91-114.7h18.15q25.14,0,25.14-37.19,0-34.36-26.63-34.36H178.49Zm0,97.88H195.3q33,0,33-37.78,0-43.29-34.07-43.29H178.49Z"/><path class="cls-1" d="M384.77,393a42.16,42.16,0,0,1-8.43,6.19h6.53a8.81,8.81,0,0,1,8.1-5.7c6.4,0,10,2.36,14.14,1.25s-15.63-5.21-8.55-18.24c0,0-7.58,8.31.12,15.26C396.68,391.74,388.61,389.39,384.77,393Z"/><path class="cls-1" d="M425,291.31q42.09-10,42.1-45.37,0-49.83-69.77-49.83H307V399.17h61.58c.16-1.9,3.05-4.72,5-6.69,2.6-2.6-2.73-11.18-6-16s-2.65-11.91-1.53-15.63,5.21-7.07-7.44-8.93-9.67-10.8-7.44-12.29,3-5.58,6.32-8.93,9.13-4.18,9.13-4.18a95.77,95.77,0,0,1,11.48-15.23c5.09-5.33,11.67-9.49,13.64-8.48s-4.83,17.49-15.63,24.93c0,0,4.83,6,5.21,10.8s7.07,11.53,13.39,11.53,40.2,6.32,32,34.24c0,0,8.19-4.46,8.19,3.35s-5.95,6.33-9.67,6.33c-2.2,0-2,2.43-2.58,4.43q53-5.65,53.05-53.23Q475.69,301.43,425,291.31ZM380.47,306a53.07,53.07,0,0,0-4,3.73,96.34,96.34,0,0,0-11.25,14.76l-.84.2c3.05-18.46,17.65-28,18.54-25.13C383,300,382,302.55,380.47,306Zm3.59-21.52H365.91V212.92h16.66q26.63,0,26.63,34.36Q409.2,284.48,384.06,284.47Z"/></svg>