<svg id="Слой_1" data-name="Слой 1" xmlns="http://www.w3.org/2000/svg" viewBox="0 0 595.28 595.28"><defs><style>.cls-1{fill:#120060;}</style></defs><title>BB_logos</title><path class="cls-1" d="M119.62,357.68V154.62h90.3q69.77,0,69.76,49.84,0,35.4-42.1,45.37,50.73,10.12,50.73,53.85,0,54-68.28,54ZM178.53,243h18.15q25.13,0,25.14-37.19,0-34.37-26.63-34.36H178.53Zm0,97.88h16.81q33,0,33-37.79,0-43.27-34.06-43.28H178.53Z"/><path class="cls-1" d="M133,403.62a26.09,26.09,0,0,1,6.46.7,12.18,12.18,0,0,1,4.35,2,7.47,7.47,0,0,1,2.45,3.12,10.55,10.55,0,0,1,.77,4.1,8.14,8.14,0,0,1-.35,2.37,7,7,0,0,1-1.11,2.14,8.5,8.5,0,0,1-1.94,1.82,12,12,0,0,1-2.84,1.43,10.21,10.21,0,0,1,5.36,2.84,7.38,7.38,0,0,1,1.73,5.08,10.52,10.52,0,0,1-.9,4.35,10.13,10.13,0,0,1-2.65,3.51,12.59,12.59,0,0,1-4.32,2.34,18.77,18.77,0,0,1-5.85.84H119.54V403.62ZM128,410v9h4.43a15,15,0,0,0,2.54-.2,5.32,5.32,0,0,0,1.92-.7,3.28,3.28,0,0,0,1.21-1.39,5.25,5.25,0,0,0,.41-2.21,6.12,6.12,0,0,0-.33-2.17,3.06,3.06,0,0,0-1-1.4,4.24,4.24,0,0,0-1.72-.75A11.89,11.89,0,0,0,133,410Zm6,23.86a7.59,7.59,0,0,0,2.75-.43,4.31,4.31,0,0,0,1.67-1.1,3.8,3.8,0,0,0,.83-1.54,6.8,6.8,0,0,0,.23-1.73,5.64,5.64,0,0,0-.27-1.81,3,3,0,0,0-.9-1.36,4.6,4.6,0,0,0-1.7-.86,9.9,9.9,0,0,0-2.66-.3H128v9.13Z"/><path class="cls-1" d="M175.28,433.46v6.79H153.21V403.62h8.5v29.84Z"/><path class="cls-1" d="M214.65,421.92a19.74,19.74,0,0,1-1.37,7.39,17.48,17.48,0,0,1-9.85,9.91,21.93,21.93,0,0,1-15.58,0,17.92,17.92,0,0,1-6-4,17.69,17.69,0,0,1-3.87-5.95,20.62,20.62,0,0,1,0-14.78,17.41,17.41,0,0,1,3.87-5.93,17.9,17.9,0,0,1,6-4,21.86,21.86,0,0,1,15.58,0,18.2,18.2,0,0,1,6,4,17.68,17.68,0,0,1,3.86,5.94A19.66,19.66,0,0,1,214.65,421.92Zm-8.7,0a15.82,15.82,0,0,0-.7-4.89,10.45,10.45,0,0,0-2-3.68A8.67,8.67,0,0,0,200,411a11,11,0,0,0-4.34-.81,11.2,11.2,0,0,0-4.39.81,8.62,8.62,0,0,0-3.25,2.31,10.45,10.45,0,0,0-2,3.68,17.53,17.53,0,0,0,0,9.81,10.45,10.45,0,0,0,2,3.68,8.6,8.6,0,0,0,3.25,2.3,11.38,11.38,0,0,0,4.39.79,11.19,11.19,0,0,0,4.34-.79,8.64,8.64,0,0,0,3.24-2.3,10.45,10.45,0,0,0,2-3.68A15.93,15.93,0,0,0,206,421.92Z"/><path class="cls-1" d="M237.25,421.27h13v15.46a19.39,19.39,0,0,1-6,3,23.59,23.59,0,0,1-6.65.93,22.75,22.75,0,0,1-8.23-1.42,18.91,18.91,0,0,1-6.35-3.92,17.21,17.21,0,0,1-4.07-5.93,19.11,19.11,0,0,1-1.44-7.46,20.21,20.21,0,0,1,1.36-7.53,17.06,17.06,0,0,1,3.88-5.92,17.62,17.62,0,0,1,6.11-3.87,22.14,22.14,0,0,1,8-1.38,22.56,22.56,0,0,1,4.3.38,19.89,19.89,0,0,1,3.71,1,16.93,16.93,0,0,1,3.1,1.55,17.55,17.55,0,0,1,2.52,2l-2.47,3.75a2.32,2.32,0,0,1-1.49,1.08,2.61,2.61,0,0,1-2-.45c-.67-.4-1.3-.75-1.89-1a10.85,10.85,0,0,0-1.83-.72,11.93,11.93,0,0,0-2-.4,18,18,0,0,0-2.31-.13,10.57,10.57,0,0,0-4.3.84,9.45,9.45,0,0,0-3.26,2.38,10.91,10.91,0,0,0-2.07,3.68,14.73,14.73,0,0,0-.73,4.79,15.57,15.57,0,0,0,.8,5.18,10.77,10.77,0,0,0,2.28,3.82,9.76,9.76,0,0,0,3.52,2.38,12.27,12.27,0,0,0,4.54.82,11.88,11.88,0,0,0,2.78-.31,16,16,0,0,0,2.42-.8v-5.56H239a1.81,1.81,0,0,1-1.26-.42,1.45,1.45,0,0,1-.45-1.09Z"/><path class="cls-1" d="M276.22,411.06a3.26,3.26,0,0,1-.79.9,1.74,1.74,0,0,1-1.07.31,2.57,2.57,0,0,1-1.25-.37l-1.5-.81a11.91,11.91,0,0,0-1.93-.82,7.76,7.76,0,0,0-2.46-.37,5.31,5.31,0,0,0-3.56,1,3.47,3.47,0,0,0-1.17,2.76,2.53,2.53,0,0,0,.71,1.83,6,6,0,0,0,1.84,1.26,20.16,20.16,0,0,0,2.62,1q1.47.45,3,1a25.58,25.58,0,0,1,3,1.27,9.69,9.69,0,0,1,2.61,1.86,8.69,8.69,0,0,1,1.85,2.75,9.76,9.76,0,0,1,.7,3.91,12.66,12.66,0,0,1-.88,4.75,10.93,10.93,0,0,1-2.55,3.86,11.82,11.82,0,0,1-4.12,2.59,15.42,15.42,0,0,1-5.57.94,18.17,18.17,0,0,1-3.48-.35,21.81,21.81,0,0,1-3.43-1,20.5,20.5,0,0,1-3.12-1.52,13.09,13.09,0,0,1-2.54-2l2.51-4a2.51,2.51,0,0,1,.8-.71,2,2,0,0,1,1.06-.29,2.89,2.89,0,0,1,1.53.48l1.73,1.05a13.63,13.63,0,0,0,2.23,1.06,8.47,8.47,0,0,0,3,.47,5.67,5.67,0,0,0,3.6-1,3.86,3.86,0,0,0,1.28-3.22,3.06,3.06,0,0,0-.71-2.09,5.36,5.36,0,0,0-1.84-1.33,16.69,16.69,0,0,0-2.6-.94c-1-.26-2-.56-3-.89a22,22,0,0,1-3-1.2,9.47,9.47,0,0,1-2.6-1.89,8.85,8.85,0,0,1-1.85-2.92,11.54,11.54,0,0,1-.7-4.31,10.36,10.36,0,0,1,3.27-7.51,11.94,11.94,0,0,1,3.94-2.46,14.65,14.65,0,0,1,5.36-.91,20.84,20.84,0,0,1,3.28.26,18.17,18.17,0,0,1,3,.78,16.38,16.38,0,0,1,2.68,1.23,12.43,12.43,0,0,1,2.22,1.62Z"/><path class="cls-1" d="M308.93,403.62a26.09,26.09,0,0,1,6.46.7,12.35,12.35,0,0,1,4.35,2,7.47,7.47,0,0,1,2.45,3.12,10.55,10.55,0,0,1,.76,4.1,7.82,7.82,0,0,1-.35,2.37,6.8,6.8,0,0,1-1.1,2.14,8.72,8.72,0,0,1-1.94,1.82,12.15,12.15,0,0,1-2.84,1.43,10.25,10.25,0,0,1,5.36,2.84,7.43,7.43,0,0,1,1.73,5.08,10.37,10.37,0,0,1-.91,4.35,9.89,9.89,0,0,1-2.65,3.51,12.45,12.45,0,0,1-4.31,2.34,18.79,18.79,0,0,1-5.86.84H295.45V403.62ZM304,410v9h4.42a15,15,0,0,0,2.54-.2,5.31,5.31,0,0,0,1.93-.7,3.25,3.25,0,0,0,1.2-1.39,5.09,5.09,0,0,0,.42-2.21,6.12,6.12,0,0,0-.33-2.17,3.08,3.08,0,0,0-1-1.4,4.18,4.18,0,0,0-1.72-.75,11.79,11.79,0,0,0-2.47-.23Zm6,23.86a7.59,7.59,0,0,0,2.75-.43,4.35,4.35,0,0,0,1.68-1.1,3.92,3.92,0,0,0,.83-1.54,6.78,6.78,0,0,0,.22-1.73,6,6,0,0,0-.26-1.81,3,3,0,0,0-.91-1.36,4.48,4.48,0,0,0-1.69-.86,10,10,0,0,0-2.67-.3H304v9.13Z"/><path class="cls-1" d="M344.4,433.54a7.72,7.72,0,0,0,3.05-.57,6.24,6.24,0,0,0,2.28-1.62,7.15,7.15,0,0,0,1.42-2.58,11.12,11.12,0,0,0,.49-3.46V403.62h8.5v21.69a17,17,0,0,1-1.1,6.19,13.75,13.75,0,0,1-3.13,4.85,14.08,14.08,0,0,1-5,3.17,19.69,19.69,0,0,1-13.15,0,14.08,14.08,0,0,1-4.95-3.17,13.59,13.59,0,0,1-3.12-4.85,17.16,17.16,0,0,1-1.08-6.19V403.62h8.5v21.67a11.21,11.21,0,0,0,.49,3.46,7.3,7.3,0,0,0,1.42,2.59,6.2,6.2,0,0,0,2.27,1.63A7.8,7.8,0,0,0,344.4,433.54Z"/><path class="cls-1" d="M398.75,403.62v36.63h-4.42a4,4,0,0,1-1.65-.31,4.28,4.28,0,0,1-1.32-1.1L374.09,417c.07.66.11,1.29.14,1.9s0,1.19,0,1.72v19.64h-7.49V403.62h4.48a7.88,7.88,0,0,1,.93.05,2.34,2.34,0,0,1,.68.19,2.27,2.27,0,0,1,.58.39,5.52,5.52,0,0,1,.62.68l17.43,22q-.14-1.05-.18-2c0-.67-.05-1.29-.05-1.88V403.62Z"/><path class="cls-1" d="M437.82,403.62v36.63H433.4a4,4,0,0,1-1.65-.31,4.17,4.17,0,0,1-1.32-1.1L413.16,417c.06.66.11,1.29.14,1.9s0,1.19,0,1.72v19.64h-7.49V403.62h4.48a7.88,7.88,0,0,1,.93.05,2.44,2.44,0,0,1,.68.19,2.07,2.07,0,0,1,.57.39,4.82,4.82,0,0,1,.63.68l17.42,22c-.08-.7-.14-1.38-.17-2s-.05-1.29-.05-1.88V403.62Z"/><path class="cls-1" d="M462.46,426.32v13.93H454V426.32l-13.27-22.7h7.49a2.71,2.71,0,0,1,1.74.51,4.23,4.23,0,0,1,1.07,1.32l5.18,10.66c.44.84.83,1.62,1.18,2.36s.66,1.44.93,2.14c.26-.72.54-1.44.87-2.17s.71-1.51,1.14-2.33l5.13-10.66a5.6,5.6,0,0,1,.43-.65,3.66,3.66,0,0,1,.59-.59,3,3,0,0,1,.78-.43,2.74,2.74,0,0,1,1-.16h7.54Z"/><path class="cls-1" d="M384.8,351.49a41.35,41.35,0,0,1-8.42,6.19h6.53A8.81,8.81,0,0,1,391,352c6.39,0,10.05,2.36,14.14,1.24S389.52,348,396.59,335c0,0-7.57,8.31.13,15.26C396.72,350.25,388.65,347.9,384.8,351.49Z"/><path class="cls-1" d="M425,249.83q42.11-10,42.1-45.37,0-49.83-69.77-49.84H307V357.68h61.58c.15-1.9,3.05-4.71,5-6.69,2.6-2.6-2.73-11.18-6.05-16s-2.64-11.9-1.52-15.63,5.21-7.07-7.44-8.93-9.68-10.8-7.44-12.28,3-5.58,6.32-8.94,9.13-4.18,9.13-4.18a96.24,96.24,0,0,1,11.47-15.22c5.1-5.33,11.68-9.5,13.65-8.49s-4.84,17.5-15.64,24.93c0,0,4.84,6,5.22,10.8s7.07,11.54,13.39,11.54,40.2,6.32,32,34.24c0,0,8.19-4.47,8.19,3.34s-5.95,6.33-9.67,6.33c-2.2,0-2,2.44-2.59,4.43q53.06-5.64,53.06-53.23Q475.73,259.94,425,249.83ZM380.51,264.5a49.59,49.59,0,0,0-4,3.74A95.85,95.85,0,0,0,365.25,283l-.84.2c3-18.47,17.65-28,18.54-25.13C383.07,258.48,382,261.07,380.51,264.5ZM384.09,243H366V171.44h16.66q26.63,0,26.63,34.36Q409.24,243,384.09,243Z"/><rect class="cls-1" x="119.62" y="377.87" width="350.06" height="5.83"/></svg>