<svg id="Слой_1" data-name="Слой 1" xmlns="http://www.w3.org/2000/svg" viewBox="0 0 595.28 595.28"><defs><style>.cls-1{fill:#fff;}</style></defs><title>BB_logos</title><path class="cls-1" d="M117.14,428.37a28.43,28.43,0,0,1,7.16.78,13.55,13.55,0,0,1,4.82,2.2,8.37,8.37,0,0,1,2.72,3.45,11.67,11.67,0,0,1,.85,4.55,8.86,8.86,0,0,1-.39,2.63,7.45,7.45,0,0,1-1.23,2.37,9.45,9.45,0,0,1-2.14,2,14,14,0,0,1-3.15,1.59,11.22,11.22,0,0,1,5.93,3.15,8.12,8.12,0,0,1,1.93,5.63,11.63,11.63,0,0,1-1,4.82,11.06,11.06,0,0,1-2.94,3.89,14.15,14.15,0,0,1-4.77,2.59,20.9,20.9,0,0,1-6.5.93H102.2v-40.6Zm-5.52,7.05v10h4.91a16,16,0,0,0,2.81-.22,5.83,5.83,0,0,0,2.13-.78,3.53,3.53,0,0,0,1.34-1.54,5.67,5.67,0,0,0,.46-2.45,7,7,0,0,0-.36-2.41,3.45,3.45,0,0,0-1.12-1.54,4.68,4.68,0,0,0-1.9-.84,13,13,0,0,0-2.75-.25Zm6.63,26.44a8.27,8.27,0,0,0,3.06-.47,4.87,4.87,0,0,0,1.85-1.23,4.15,4.15,0,0,0,.92-1.7,7.33,7.33,0,0,0,.25-1.92,6.52,6.52,0,0,0-.29-2,3.31,3.31,0,0,0-1-1.51,4.82,4.82,0,0,0-1.88-.95,11.06,11.06,0,0,0-3-.33h-6.58v10.11Z"/><path class="cls-1" d="M164,461.45V469H139.52v-40.6h9.42v33.08Z"/><path class="cls-1" d="M207.62,448.65a21.71,21.71,0,0,1-1.52,8.2,19.8,19.8,0,0,1-4.28,6.59,19.49,19.49,0,0,1-6.64,4.39,24.39,24.39,0,0,1-17.27,0,19.39,19.39,0,0,1-11-11,22.85,22.85,0,0,1,0-16.39,19.39,19.39,0,0,1,4.29-6.57,19.94,19.94,0,0,1,6.67-4.38,22.74,22.74,0,0,1,8.65-1.59,22.4,22.4,0,0,1,8.62,1.61,19.79,19.79,0,0,1,6.64,4.39,19.41,19.41,0,0,1,4.28,6.57A21.61,21.61,0,0,1,207.62,448.65Zm-9.64,0a17.49,17.49,0,0,0-.78-5.41,11.47,11.47,0,0,0-2.25-4.09,9.56,9.56,0,0,0-3.58-2.56,12.17,12.17,0,0,0-4.81-.89,12.41,12.41,0,0,0-4.87.89,9.59,9.59,0,0,0-3.59,2.56,11.47,11.47,0,0,0-2.25,4.09,19.29,19.29,0,0,0,0,10.86,11.47,11.47,0,0,0,2.25,4.09,9.44,9.44,0,0,0,3.59,2.54,12.59,12.59,0,0,0,4.87.88,12.35,12.35,0,0,0,4.81-.88,9.4,9.4,0,0,0,3.58-2.54,11.47,11.47,0,0,0,2.25-4.09A17.66,17.66,0,0,0,198,448.65Z"/><path class="cls-1" d="M232.67,447.93H247.1v17.14a21.33,21.33,0,0,1-6.64,3.32,26.4,26.4,0,0,1-7.37,1,25.32,25.32,0,0,1-9.13-1.57,21,21,0,0,1-7-4.35,18.93,18.93,0,0,1-4.52-6.57,21.23,21.23,0,0,1-1.59-8.27,22.34,22.34,0,0,1,1.51-8.34,18.8,18.8,0,0,1,4.3-6.56,19.53,19.53,0,0,1,6.78-4.29,24.24,24.24,0,0,1,8.87-1.54,25.82,25.82,0,0,1,4.77.42,24.14,24.14,0,0,1,4.11,1.14,19.41,19.41,0,0,1,3.44,1.73,17.64,17.64,0,0,1,2.78,2.18l-2.73,4.15a2.6,2.6,0,0,1-1.66,1.19,2.92,2.92,0,0,1-2.18-.5c-.75-.44-1.45-.83-2.11-1.15a12.48,12.48,0,0,0-2-.8,13.45,13.45,0,0,0-2.17-.44,20,20,0,0,0-2.56-.14,11.73,11.73,0,0,0-4.77.93,10.3,10.3,0,0,0-3.61,2.63,12.08,12.08,0,0,0-2.3,4.09,16.61,16.61,0,0,0-.8,5.3,17,17,0,0,0,.89,5.75,11.74,11.74,0,0,0,2.52,4.23,11,11,0,0,0,3.9,2.64,13.52,13.52,0,0,0,5,.9,13.28,13.28,0,0,0,3.08-.33,17,17,0,0,0,2.69-.9v-6.15h-4a2,2,0,0,1-1.4-.48,1.58,1.58,0,0,1-.5-1.2Z"/><path class="cls-1" d="M275.86,436.62a3.53,3.53,0,0,1-.88,1,2,2,0,0,1-1.18.33,2.87,2.87,0,0,1-1.38-.4l-1.67-.9a13.24,13.24,0,0,0-2.13-.91,8.51,8.51,0,0,0-2.73-.41,5.91,5.91,0,0,0-3.95,1.13,3.86,3.86,0,0,0-1.29,3.05,2.82,2.82,0,0,0,.78,2,6.72,6.72,0,0,0,2,1.39,23.36,23.36,0,0,0,2.9,1.08q1.63.48,3.33,1.08a29.55,29.55,0,0,1,3.34,1.41,11.25,11.25,0,0,1,2.89,2.06,9.57,9.57,0,0,1,2.05,3.05,10.88,10.88,0,0,1,.78,4.33,14.11,14.11,0,0,1-1,5.27A12.37,12.37,0,0,1,275,465.5a13.18,13.18,0,0,1-4.57,2.87,17,17,0,0,1-6.18,1,20.68,20.68,0,0,1-3.86-.38,22.68,22.68,0,0,1-3.8-1.11,22.15,22.15,0,0,1-3.46-1.68,14.89,14.89,0,0,1-2.81-2.18l2.79-4.4a2.7,2.7,0,0,1,.88-.79,2.3,2.3,0,0,1,1.18-.32,3.16,3.16,0,0,1,1.68.53l1.93,1.17a15.68,15.68,0,0,0,2.46,1.17,9.38,9.38,0,0,0,3.29.53,6.29,6.29,0,0,0,4-1.13,4.29,4.29,0,0,0,1.42-3.58,3.37,3.37,0,0,0-.78-2.31,5.92,5.92,0,0,0-2.05-1.48,18.17,18.17,0,0,0-2.88-1c-1.08-.3-2.19-.63-3.32-1a24.26,24.26,0,0,1-3.32-1.34,10.72,10.72,0,0,1-2.88-2.09,9.67,9.67,0,0,1-2-3.23,12.86,12.86,0,0,1-.78-4.78,11.46,11.46,0,0,1,3.63-8.33,13.24,13.24,0,0,1,4.37-2.72,16.11,16.11,0,0,1,5.94-1,22.8,22.8,0,0,1,3.63.29,19.69,19.69,0,0,1,3.36.87,18.33,18.33,0,0,1,3,1.37,13,13,0,0,1,2.46,1.79Z"/><path class="cls-1" d="M312.11,428.37a28.46,28.46,0,0,1,7.17.78,13.71,13.71,0,0,1,4.82,2.2,8.35,8.35,0,0,1,2.71,3.45,11.68,11.68,0,0,1,.86,4.55,8.87,8.87,0,0,1-.4,2.63,7.63,7.63,0,0,1-1.22,2.37,9.72,9.72,0,0,1-2.15,2,13.62,13.62,0,0,1-3.15,1.59,11.25,11.25,0,0,1,5.94,3.15,8.16,8.16,0,0,1,1.92,5.63,11.62,11.62,0,0,1-1,4.82,11.18,11.18,0,0,1-2.94,3.89,14.2,14.2,0,0,1-4.78,2.59,20.88,20.88,0,0,1-6.49.93H297.18v-40.6Zm-5.51,7.05v10h4.9a16.14,16.14,0,0,0,2.82-.22,6,6,0,0,0,2.13-.78,3.6,3.6,0,0,0,1.34-1.54,5.83,5.83,0,0,0,.45-2.45,7,7,0,0,0-.36-2.41,3.43,3.43,0,0,0-1.11-1.54,4.72,4.72,0,0,0-1.91-.84,13,13,0,0,0-2.75-.25Zm6.63,26.44a8.25,8.25,0,0,0,3-.47,4.72,4.72,0,0,0,1.85-1.23,4,4,0,0,0,.92-1.7,7.33,7.33,0,0,0,.25-1.92,6.23,6.23,0,0,0-.29-2,3.29,3.29,0,0,0-1-1.51,4.82,4.82,0,0,0-1.88-.95,11.14,11.14,0,0,0-3-.33H306.6v10.11Z"/><path class="cls-1" d="M351.43,461.53a8.68,8.68,0,0,0,3.39-.63,6.93,6.93,0,0,0,2.52-1.8,7.78,7.78,0,0,0,1.57-2.85,12.51,12.51,0,0,0,.55-3.83V428.37h9.42v24.05a18.71,18.71,0,0,1-1.22,6.85,15.39,15.39,0,0,1-3.47,5.38,15.69,15.69,0,0,1-5.49,3.51,21.85,21.85,0,0,1-14.57,0,15.78,15.78,0,0,1-5.49-3.51,15.37,15.37,0,0,1-3.46-5.38,19.13,19.13,0,0,1-1.19-6.85V428.37h9.42v24a12.52,12.52,0,0,0,.54,3.83,8.2,8.2,0,0,0,1.57,2.87,6.79,6.79,0,0,0,2.53,1.81A8.59,8.59,0,0,0,351.43,461.53Z"/><path class="cls-1" d="M411.68,428.37V469h-4.91a4.28,4.28,0,0,1-1.82-.35,4.39,4.39,0,0,1-1.47-1.21l-19.14-24.22c.07.73.13,1.43.15,2.11s.05,1.31.05,1.91V469h-8.31v-40.6h5a9.7,9.7,0,0,1,1,.05,2.74,2.74,0,0,1,.75.21,2.41,2.41,0,0,1,.65.44,6.77,6.77,0,0,1,.69.75l19.31,24.38c-.09-.78-.16-1.54-.19-2.27s-.06-1.43-.06-2.08V428.37Z"/><path class="cls-1" d="M455,428.37V469h-4.9a4.3,4.3,0,0,1-1.83-.35,4.37,4.37,0,0,1-1.46-1.21l-19.15-24.22c.08.73.13,1.43.16,2.11s0,1.31,0,1.91V469h-8.3v-40.6h4.95a9.9,9.9,0,0,1,1,.05,2.85,2.85,0,0,1,.75.21,2.37,2.37,0,0,1,.64.44,6.73,6.73,0,0,1,.7.75l19.31,24.38c-.1-.78-.16-1.54-.2-2.27s-.05-1.43-.05-2.08V428.37Z"/><path class="cls-1" d="M482.29,453.53V469h-9.42V453.53l-14.71-25.16h8.3a3,3,0,0,1,1.94.57,4.63,4.63,0,0,1,1.18,1.46l5.74,11.82c.49.93.92,1.8,1.31,2.6s.73,1.61,1,2.39c.28-.8.6-1.61,1-2.41s.79-1.67,1.27-2.58l5.68-11.82a5,5,0,0,1,.48-.72,3.68,3.68,0,0,1,.65-.66,3.45,3.45,0,0,1,.87-.47,3,3,0,0,1,1.07-.18H497Z"/><path class="cls-1" d="M213.46,265.24H199.59v71.32h14.79q29.06,0,29.05-33.24Q243.43,265.24,213.46,265.24Z"/><path class="cls-1" d="M379.13,187.5H364.47v62.95h16q22.11,0,22.11-32.72Q402.55,187.51,379.13,187.5Z"/><path class="cls-1" d="M363.12,285.83c.27-.08.52-.13.74-.18a84.25,84.25,0,0,1,9.89-13,42.74,42.74,0,0,1,3.53-3.29c1.34-3,2.26-5.3,2.15-5.66C378.64,261.19,365.8,269.58,363.12,285.83Z"/><path class="cls-1" d="M98.28,125.86V398.8H497V125.86ZM236.1,351.35H147.77V172.72H227.2q61.38,0,61.38,43.84,0,31.14-37,39.91,44.63,8.91,44.63,47.37Q296.17,351.35,236.1,351.35ZM399,347.44c-3.6,1-6.82-1.1-12.44-1.1a7.76,7.76,0,0,0-7.13,5h-5.74a36.77,36.77,0,0,0,7.41-5.44c3.38-3.16,10.48-1.1,10.48-1.1-6.77-6.11-.11-13.42-.11-13.42C385.21,342.85,402.56,346.46,399,347.44Zm15.41,3.23c.51-1.75.34-3.89,2.28-3.89,3.27,0,8.51,1.31,8.51-5.57s-7.21-2.95-7.21-2.95c7.21-24.55-22.59-30.12-28.16-30.12S378.33,302.25,378,298s-4.59-9.5-4.59-9.5c9.5-6.55,15.49-21.05,13.76-21.94s-7.52,2.78-12,7.47a84.48,84.48,0,0,0-10.09,13.39s-5.08.73-8,3.68-3.6,6.55-5.57,7.86-4.58,9.16,6.55,10.81,7.53,4.58,6.55,7.85-1.58,9.5,1.34,13.76,7.61,11.8,5.32,14.09c-1.74,1.73-4.28,4.21-4.42,5.88H312.65V172.72h79.43q61.38,0,61.38,43.84,0,31.14-37,39.91,44.63,8.91,44.63,47.37Q461.05,345.72,414.37,350.67Z"/><path class="cls-1" d="M237.67,217.73q0-30.22-23.42-30.23H199.59v62.95h16Q237.67,250.45,237.67,217.73Z"/></svg>