<svg id="Слой_1" data-name="Слой 1" xmlns="http://www.w3.org/2000/svg" viewBox="0 0 1050.45 488.07"><defs><style>.cls-1{fill:#120060;}.cls-2{fill:#fff;}</style></defs><title>BB_logos</title><rect class="cls-1" width="1050.45" height="488.07"/><path class="cls-2" d="M371.32,288v12.73h-41.4V232h15.93v56Z"/><path class="cls-2" d="M445.16,266.34a36.82,36.82,0,0,1-2.57,13.86,32.81,32.81,0,0,1-18.48,18.58,41.16,41.16,0,0,1-29.22,0,32.81,32.81,0,0,1-18.55-18.58,38.69,38.69,0,0,1,0-27.73,33,33,0,0,1,7.26-11.13,33.61,33.61,0,0,1,11.29-7.4,38.52,38.52,0,0,1,14.62-2.69,38.12,38.12,0,0,1,14.6,2.71,33.76,33.76,0,0,1,11.24,7.43,33.07,33.07,0,0,1,7.24,11.13A36.65,36.65,0,0,1,445.16,266.34Zm-16.31,0a29.75,29.75,0,0,0-1.32-9.18,19.63,19.63,0,0,0-3.8-6.91,16.35,16.35,0,0,0-6.06-4.33,20.79,20.79,0,0,0-8.16-1.51,21.11,21.11,0,0,0-8.23,1.51,16.34,16.34,0,0,0-6.08,4.33,19.3,19.3,0,0,0-3.79,6.91,32.45,32.45,0,0,0,0,18.39,19.21,19.21,0,0,0,3.79,6.91,16.09,16.09,0,0,0,6.08,4.32,21.49,21.49,0,0,0,8.23,1.48,21.16,21.16,0,0,0,8.16-1.48,16.1,16.1,0,0,0,6.06-4.32,19.54,19.54,0,0,0,3.8-6.91A29.86,29.86,0,0,0,428.85,266.34Z"/><path class="cls-2" d="M487.55,265.11H512v29a36,36,0,0,1-11.25,5.61,44.25,44.25,0,0,1-12.47,1.74,42.73,42.73,0,0,1-15.44-2.66,35.59,35.59,0,0,1-11.91-7.36,32.17,32.17,0,0,1-7.64-11.12,36,36,0,0,1-2.69-14,38,38,0,0,1,2.55-14.13,31.68,31.68,0,0,1,7.29-11.1,33,33,0,0,1,11.45-7.26,41.42,41.42,0,0,1,15-2.6A44,44,0,0,1,495,232a39.32,39.32,0,0,1,7,1.93,32.17,32.17,0,0,1,10.54,6.6l-4.62,7a4.46,4.46,0,0,1-2.81,2,5,5,0,0,1-3.7-.85c-1.25-.75-2.44-1.41-3.55-2a22.85,22.85,0,0,0-3.42-1.34,22.32,22.32,0,0,0-3.69-.76,37.5,37.5,0,0,0-4.33-.23,19.7,19.7,0,0,0-8.07,1.58,17.28,17.28,0,0,0-6.1,4.45,20.17,20.17,0,0,0-3.89,6.91,27.63,27.63,0,0,0-1.37,9,28.82,28.82,0,0,0,1.51,9.71,20.14,20.14,0,0,0,4.26,7.17,18.17,18.17,0,0,0,6.61,4.45,22.82,22.82,0,0,0,8.51,1.54,22.06,22.06,0,0,0,5.21-.57,29.24,29.24,0,0,0,4.55-1.51V276.71h-6.79a3.32,3.32,0,0,1-2.36-.8,2.7,2.7,0,0,1-.85-2Z"/><path class="cls-2" d="M560.64,246a6,6,0,0,1-1.48,1.69,3.32,3.32,0,0,1-2,.57,5,5,0,0,1-2.33-.68L552,246a23,23,0,0,0-3.61-1.53,14.3,14.3,0,0,0-4.62-.68c-3,0-5.21.63-6.67,1.91a6.49,6.49,0,0,0-2.19,5.16,4.75,4.75,0,0,0,1.32,3.44,11.38,11.38,0,0,0,3.46,2.36,35.84,35.84,0,0,0,4.91,1.81c1.84.56,3.71,1.17,5.63,1.84a51.45,51.45,0,0,1,5.64,2.38,18.85,18.85,0,0,1,4.9,3.5,16.2,16.2,0,0,1,3.47,5.16,18.36,18.36,0,0,1,1.32,7.33,23.84,23.84,0,0,1-1.65,8.91,20.86,20.86,0,0,1-4.79,7.24,22.25,22.25,0,0,1-7.73,4.86,29,29,0,0,1-10.45,1.76,33.46,33.46,0,0,1-6.53-.65,40.33,40.33,0,0,1-6.44-1.87,37.18,37.18,0,0,1-5.84-2.85,25,25,0,0,1-4.77-3.68l4.72-7.45a4.72,4.72,0,0,1,1.49-1.34,3.88,3.88,0,0,1,2-.55,5.33,5.33,0,0,1,2.85.9c1,.6,2.05,1.26,3.26,2a25.29,25.29,0,0,0,4.17,2,15.58,15.58,0,0,0,5.56.9,10.63,10.63,0,0,0,6.75-1.91c1.6-1.28,2.4-3.29,2.4-6.06a5.7,5.7,0,0,0-1.32-3.91,10.28,10.28,0,0,0-3.46-2.51,32.84,32.84,0,0,0-4.88-1.74q-2.75-.75-5.61-1.67a41.8,41.8,0,0,1-5.62-2.27,17.64,17.64,0,0,1-4.88-3.53,16.57,16.57,0,0,1-3.46-5.47,21.75,21.75,0,0,1-1.32-8.09,19.43,19.43,0,0,1,6.13-14.1,22.5,22.5,0,0,1,7.4-4.6,27.47,27.47,0,0,1,10-1.72,37.75,37.75,0,0,1,6.16.5,31.93,31.93,0,0,1,5.68,1.46,31.14,31.14,0,0,1,5,2.31,22.58,22.58,0,0,1,4.17,3Z"/><path class="cls-2" d="M622,232a48.1,48.1,0,0,1,12.12,1.32,23.06,23.06,0,0,1,8.15,3.72,14.06,14.06,0,0,1,4.6,5.85,19.74,19.74,0,0,1,1.44,7.69,15,15,0,0,1-.66,4.45,12.87,12.87,0,0,1-2.07,4,16.58,16.58,0,0,1-3.63,3.42,23.07,23.07,0,0,1-5.33,2.69q6.78,1.65,10,5.32A13.86,13.86,0,0,1,649.9,280a19.71,19.71,0,0,1-1.69,8.16,18.78,18.78,0,0,1-5,6.58,23.52,23.52,0,0,1-8.08,4.38,35.29,35.29,0,0,1-11,1.58H596.71V232Zm-9.34,11.93v17H621a27.47,27.47,0,0,0,4.76-.37,10,10,0,0,0,3.61-1.33,5.94,5.94,0,0,0,2.26-2.59,9.7,9.7,0,0,0,.78-4.15,11.69,11.69,0,0,0-.61-4.08,5.85,5.85,0,0,0-1.89-2.61,7.86,7.86,0,0,0-3.23-1.42,22.34,22.34,0,0,0-4.64-.42Zm11.22,44.75a14,14,0,0,0,5.17-.81,8.2,8.2,0,0,0,3.14-2.07,7,7,0,0,0,1.55-2.88,12.72,12.72,0,0,0,.43-3.25,10.9,10.9,0,0,0-.5-3.4,5.64,5.64,0,0,0-1.7-2.54,8.19,8.19,0,0,0-3.18-1.6,18.44,18.44,0,0,0-5-.57H612.65v17.12Z"/><path class="cls-2" d="M688.52,288.12a14.6,14.6,0,0,0,5.73-1.06,11.62,11.62,0,0,0,4.27-3,13.44,13.44,0,0,0,2.66-4.83,21,21,0,0,0,.92-6.49V232H718V272.7a31.73,31.73,0,0,1-2,11.6,26,26,0,0,1-5.87,9.1,26.47,26.47,0,0,1-9.29,5.94,36.92,36.92,0,0,1-24.66,0,26.29,26.29,0,0,1-9.29-5.94,25.72,25.72,0,0,1-5.85-9.1,32.15,32.15,0,0,1-2-11.6V232h15.94v40.64a21.19,21.19,0,0,0,.92,6.49,13.9,13.9,0,0,0,2.66,4.86,11.63,11.63,0,0,0,4.27,3.06A14.6,14.6,0,0,0,688.52,288.12Z"/><path class="cls-2" d="M790.47,232v68.7h-8.3a7.16,7.16,0,0,1-3.09-.59,7.39,7.39,0,0,1-2.47-2.05l-32.4-41c.13,1.23.21,2.41.26,3.56s.07,2.23.07,3.23v36.83h-14V232h8.39a14.15,14.15,0,0,1,1.75.09,4.38,4.38,0,0,1,1.27.35,4.16,4.16,0,0,1,1.08.74,11,11,0,0,1,1.18,1.27l32.68,41.26c-.16-1.32-.26-2.6-.33-3.84s-.09-2.42-.09-3.52V232Z"/><path class="cls-2" d="M863.75,232v68.7h-8.3a7.1,7.1,0,0,1-3.09-.59,7.52,7.52,0,0,1-2.48-2.05l-32.39-41c.12,1.23.21,2.41.26,3.56s.07,2.23.07,3.23v36.83H803.77V232h8.39a14.09,14.09,0,0,1,1.74.09,4.45,4.45,0,0,1,1.28.35,4.52,4.52,0,0,1,1.08.74,11,11,0,0,1,1.18,1.27l32.68,41.26q-.24-2-.33-3.84c-.07-1.24-.1-2.42-.1-3.52V232Z"/><path class="cls-2" d="M910,274.59v26.12H894V274.59L869.12,232h14a5.1,5.1,0,0,1,3.28,1,8,8,0,0,1,2,2.48l9.71,20c.82,1.57,1.55,3,2.22,4.41s1.24,2.71,1.74,4c.47-1.35,1-2.71,1.63-4.08s1.33-2.82,2.14-4.36l9.62-20a9.52,9.52,0,0,1,.8-1.23,6.09,6.09,0,0,1,1.11-1.1,5.62,5.62,0,0,1,1.47-.81,5.21,5.21,0,0,1,1.81-.3h14.15Z"/><path class="cls-2" d="M222,301V186.61h50.85q39.29,0,39.29,28.06,0,19.94-23.71,25.55Q317,245.92,317,270.55,317,301,278.51,301Zm33.17-64.59h10.22q14.16,0,14.16-20.94,0-19.37-15-19.36h-9.39Zm0,55.13h9.47q18.6,0,18.6-21.28,0-24.39-19.19-24.38h-8.88Z"/><path class="cls-2" d="M159.39,297.48a23.34,23.34,0,0,1-4.74,3.48h3.68a5,5,0,0,1,4.56-3.2c3.6,0,5.66,1.33,8,.7s-8.8-2.93-4.82-10.27c0,0-4.26,4.68.07,8.59C166.1,296.78,161.56,295.46,159.39,297.48Z"/><path class="cls-2" d="M182,240.22q23.72-5.61,23.71-25.55,0-28.06-39.29-28.06H115.6V301h34.68c.09-1.06,1.72-2.65,2.83-3.76,1.46-1.47-1.54-6.3-3.41-9s-1.49-6.71-.86-8.81,2.94-4-4.19-5-5.45-6.08-4.19-6.92,1.68-3.14,3.56-5a10.47,10.47,0,0,1,5.14-2.35,54.4,54.4,0,0,1,6.47-8.58c2.87-3,6.57-5.34,7.68-4.78s-2.72,9.86-8.8,14.05c0,0,2.72,3.35,2.93,6.08s4,6.49,7.54,6.49,22.64,3.56,18,19.29c0,0,4.61-2.52,4.61,1.88s-3.35,3.57-5.44,3.57c-1.24,0-1.13,1.37-1.46,2.49q29.88-3.18,29.88-30Q210.6,245.92,182,240.22ZM157,248.49a28.47,28.47,0,0,0-2.26,2.1,54.1,54.1,0,0,0-6.34,8.31l-.47.12c1.71-10.4,9.94-15.78,10.44-14.16A16.89,16.89,0,0,1,157,248.49Zm2-12.12H148.77v-40.3h9.39q15,0,15,19.36Q173.15,236.37,159,236.37Z"/></svg>