<svg id="Слой_1" data-name="Слой 1" xmlns="http://www.w3.org/2000/svg" viewBox="0 0 595.28 595.28"><defs><style>.cls-1{fill:#120060;}.cls-2{fill:#fff;}</style></defs><title>BB_logos</title><rect class="cls-1" width="595.28" height="595.28"/><path class="cls-2" d="M78.2,358.67V235.56H133q42.3,0,42.3,30.21,0,21.47-25.53,27.51,30.75,6.14,30.76,32.65,0,32.73-41.4,32.74Zm35.72-69.54h11q15.24,0,15.24-22.55,0-20.82-16.14-20.83h-10.1Zm0,59.34h10.19q20,0,20-22.9,0-26.25-20.65-26.25h-9.56Z"/><path class="cls-2" d="M338.22,280v9.75H306.53v-52.6h12.2V280Z"/><path class="cls-2" d="M394.76,263.39a28.28,28.28,0,0,1-2,10.61,25.09,25.09,0,0,1-14.15,14.23,31.51,31.51,0,0,1-22.36,0A25.12,25.12,0,0,1,342.07,274a29.58,29.58,0,0,1,0-21.23,25.07,25.07,0,0,1,5.56-8.51,25.6,25.6,0,0,1,8.65-5.67,31.23,31.23,0,0,1,22.36,0,25.08,25.08,0,0,1,14.15,14.2A28.2,28.2,0,0,1,394.76,263.39Zm-12.49,0a22.84,22.84,0,0,0-1-7,14.86,14.86,0,0,0-2.91-5.29,12.43,12.43,0,0,0-4.64-3.32,16,16,0,0,0-6.24-1.16,16.2,16.2,0,0,0-6.3,1.16,12.42,12.42,0,0,0-4.66,3.32,15,15,0,0,0-2.91,5.29,25,25,0,0,0,0,14.08,15.1,15.1,0,0,0,2.91,5.29,12.38,12.38,0,0,0,4.66,3.3,16.38,16.38,0,0,0,6.3,1.14,16.14,16.14,0,0,0,6.24-1.14,12.38,12.38,0,0,0,4.64-3.3,15,15,0,0,0,2.91-5.29A23,23,0,0,0,382.27,263.39Z"/><path class="cls-2" d="M427.21,262.45h18.71v22.2a27.6,27.6,0,0,1-8.61,4.3,33.9,33.9,0,0,1-9.55,1.33,32.82,32.82,0,0,1-11.83-2,27.08,27.08,0,0,1-9.11-5.64,24.57,24.57,0,0,1-5.85-8.52,27.5,27.5,0,0,1-2.06-10.7,29.11,29.11,0,0,1,1.95-10.81,24.27,24.27,0,0,1,5.58-8.5,25.14,25.14,0,0,1,8.77-5.56,31.57,31.57,0,0,1,11.5-2,33.5,33.5,0,0,1,6.17.54,30,30,0,0,1,5.33,1.48,24.44,24.44,0,0,1,8.07,5L442.74,249a3.42,3.42,0,0,1-2.15,1.56,3.82,3.82,0,0,1-2.83-.65q-1.45-.87-2.73-1.5a17.16,17.16,0,0,0-2.62-1,17.69,17.69,0,0,0-2.81-.58,27.81,27.81,0,0,0-3.32-.18,15.28,15.28,0,0,0-6.18,1.21,13.16,13.16,0,0,0-4.67,3.41,15.43,15.43,0,0,0-3,5.29,21.28,21.28,0,0,0-1.05,6.88,22.18,22.18,0,0,0,1.16,7.44,15.48,15.48,0,0,0,3.26,5.48,14,14,0,0,0,5.06,3.42,18.71,18.71,0,0,0,10.5.74,22.32,22.32,0,0,0,3.49-1.16v-8h-5.2a2.54,2.54,0,0,1-1.81-.61,2.06,2.06,0,0,1-.65-1.55Z"/><path class="cls-2" d="M483.17,247.79a4.65,4.65,0,0,1-1.13,1.3,2.55,2.55,0,0,1-1.54.43,3.76,3.76,0,0,1-1.79-.52l-2.16-1.17a18.77,18.77,0,0,0-2.76-1.17,11.07,11.07,0,0,0-3.54-.53,7.64,7.64,0,0,0-5.11,1.46,5,5,0,0,0-1.68,4,3.63,3.63,0,0,0,1,2.63,8.82,8.82,0,0,0,2.66,1.81,28.59,28.59,0,0,0,3.75,1.39c1.41.42,2.85.89,4.31,1.41a37,37,0,0,1,4.32,1.82,14.36,14.36,0,0,1,3.75,2.67,12.48,12.48,0,0,1,2.66,4,14.18,14.18,0,0,1,1,5.62,18.14,18.14,0,0,1-1.27,6.82,15.85,15.85,0,0,1-3.66,5.54,17,17,0,0,1-5.92,3.72,22.22,22.22,0,0,1-8,1.35,25.46,25.46,0,0,1-5-.5,29.65,29.65,0,0,1-4.93-1.43,28.48,28.48,0,0,1-4.47-2.18,18.5,18.5,0,0,1-3.65-2.82l3.61-5.7a3.66,3.66,0,0,1,1.14-1,2.93,2.93,0,0,1,1.53-.41,4.21,4.21,0,0,1,2.19.68c.73.46,1.56,1,2.49,1.52a19.75,19.75,0,0,0,3.19,1.51,12,12,0,0,0,4.26.69,8.16,8.16,0,0,0,5.17-1.46,5.59,5.59,0,0,0,1.84-4.64,4.41,4.41,0,0,0-1-3,7.77,7.77,0,0,0-2.66-1.91,24.42,24.42,0,0,0-3.73-1.34c-1.4-.38-2.83-.81-4.3-1.28a32.45,32.45,0,0,1-4.3-1.73,13.62,13.62,0,0,1-3.73-2.71,12.65,12.65,0,0,1-2.66-4.19,16.67,16.67,0,0,1-1-6.19,14.81,14.81,0,0,1,1.19-5.78,15,15,0,0,1,3.51-5,17.15,17.15,0,0,1,5.66-3.52,20.94,20.94,0,0,1,7.69-1.32,28.1,28.1,0,0,1,4.72.38,24.33,24.33,0,0,1,4.35,1.12A23.23,23.23,0,0,1,483,239.8a17.85,17.85,0,0,1,3.2,2.32Z"/><path class="cls-2" d="M328.47,349.5a11.23,11.23,0,0,0,4.39-.81,8.85,8.85,0,0,0,3.27-2.33,10.35,10.35,0,0,0,2-3.7,16.15,16.15,0,0,0,.7-5V306.54h12.2V337.7a24.3,24.3,0,0,1-1.57,8.88,19.83,19.83,0,0,1-4.49,7,20.25,20.25,0,0,1-7.11,4.55,28.15,28.15,0,0,1-18.88,0,20.2,20.2,0,0,1-7.12-4.55,19.78,19.78,0,0,1-4.47-7,24.51,24.51,0,0,1-1.56-8.88V306.54h12.21v31.12a16.1,16.1,0,0,0,.7,5,10.45,10.45,0,0,0,2,3.72,8.79,8.79,0,0,0,3.27,2.35A11.25,11.25,0,0,0,328.47,349.5Z"/><path class="cls-2" d="M406.53,306.54v52.6h-6.36a5.52,5.52,0,0,1-2.36-.45,5.89,5.89,0,0,1-1.9-1.57l-24.8-31.37c.1.93.16,1.84.2,2.72s.06,1.7.06,2.47v28.2H360.61v-52.6H367a10.13,10.13,0,0,1,1.34.07,3.54,3.54,0,0,1,1,.27,3.11,3.11,0,0,1,.83.56,9.19,9.19,0,0,1,.91,1l25,31.58c-.12-1-.2-2-.25-2.94s-.07-1.84-.07-2.69V306.54Z"/><path class="cls-2" d="M462.63,306.54v52.6h-6.35a5.57,5.57,0,0,1-2.37-.45,5.76,5.76,0,0,1-1.89-1.57l-24.81-31.37c.1.93.17,1.84.2,2.72s.06,1.7.06,2.47v28.2H416.71v-52.6h6.42a10.13,10.13,0,0,1,1.34.07,3.61,3.61,0,0,1,1,.27,3.47,3.47,0,0,1,.83.56,10.43,10.43,0,0,1,.9,1l25,31.58c-.12-1-.21-2-.26-2.94s-.07-1.84-.07-2.69V306.54Z"/><path class="cls-2" d="M498,339.14v20h-12.2v-20l-19.06-32.6H477.5a3.91,3.91,0,0,1,2.51.74,5.89,5.89,0,0,1,1.54,1.89L489,324.48c.63,1.2,1.2,2.33,1.7,3.38s.95,2.07,1.34,3.08c.36-1,.77-2.07,1.24-3.12s1-2.16,1.65-3.34l7.36-15.31a6.26,6.26,0,0,1,.62-.93,4.35,4.35,0,0,1,2-1.47,4.14,4.14,0,0,1,1.39-.23h10.83Z"/><path class="cls-2" d="M239,354.92a25.74,25.74,0,0,1-5.11,3.75h4a5.34,5.34,0,0,1,4.91-3.46c3.87,0,6.09,1.43,8.57.76s-9.48-3.16-5.19-11.06c0,0-4.59,5,.08,9.25C246.2,354.16,241.31,352.74,239,354.92Z"/><path class="cls-2" d="M263.35,293.28q25.51-6,25.52-27.51,0-30.21-42.3-30.21H191.83V358.67h37.33c.1-1.16,1.85-2.86,3.05-4.06,1.57-1.57-1.66-6.78-3.67-9.71s-1.6-7.22-.92-9.48,3.16-4.28-4.51-5.41-5.87-6.55-4.51-7.45,1.8-3.38,3.83-5.42a11.19,11.19,0,0,1,5.53-2.53,57.8,57.8,0,0,1,7-9.23c3.09-3.23,7.08-5.76,8.27-5.15s-2.93,10.61-9.48,15.12c0,0,2.94,3.61,3.16,6.55s4.29,7,8.12,7,24.38,3.83,19.41,20.76c0,0,5-2.71,5,2s-3.61,3.84-5.87,3.84c-1.33,0-1.22,1.47-1.56,2.68q32.16-3.42,32.16-32.27Q294.1,299.41,263.35,293.28Zm-27,8.9a29.23,29.23,0,0,0-2.43,2.26,57.56,57.56,0,0,0-6.82,8.95l-.51.12c1.85-11.2,10.7-17,11.24-15.24A17.18,17.18,0,0,1,236.37,302.18Zm2.18-13.05h-11V245.75h10.11q16.14,0,16.14,20.83Q253.79,289.14,238.55,289.13Z"/></svg>