<svg id="Слой_1" data-name="Слой 1" xmlns="http://www.w3.org/2000/svg" viewBox="0 0 595.28 595.28"><defs><style>.cls-1{fill:#120060;}</style></defs><title>BB_logos</title><path class="cls-1" d="M135.19,415.3a25.45,25.45,0,0,1,6.44.7,12.3,12.3,0,0,1,4.34,2,7.51,7.51,0,0,1,2.45,3.11,10.5,10.5,0,0,1,.76,4.09,7.82,7.82,0,0,1-.35,2.37,6.76,6.76,0,0,1-1.1,2.13,8.89,8.89,0,0,1-1.93,1.82,12.15,12.15,0,0,1-2.84,1.43,10.07,10.07,0,0,1,5.35,2.83,7.37,7.37,0,0,1,1.73,5.07,10.36,10.36,0,0,1-.91,4.34,9.92,9.92,0,0,1-2.64,3.49,12.49,12.49,0,0,1-4.3,2.34,18.77,18.77,0,0,1-5.85.84H121.75V415.3Zm-5,6.34v9h4.42a14.92,14.92,0,0,0,2.53-.2,5.32,5.32,0,0,0,1.92-.7,3.22,3.22,0,0,0,1.2-1.38,5.12,5.12,0,0,0,.42-2.21,6.15,6.15,0,0,0-.33-2.17,3.1,3.1,0,0,0-1-1.39,4.24,4.24,0,0,0-1.72-.75,11.79,11.79,0,0,0-2.47-.23Zm6,23.8a7.38,7.38,0,0,0,2.75-.43,4.31,4.31,0,0,0,1.67-1.1,3.68,3.68,0,0,0,.82-1.53,6.74,6.74,0,0,0,.23-1.73,5.88,5.88,0,0,0-.26-1.8,3,3,0,0,0-.91-1.36,4.33,4.33,0,0,0-1.69-.85,9.9,9.9,0,0,0-2.66-.3h-5.92v9.1Z"/><path class="cls-1" d="M177.35,445.07v6.77h-22V415.3h8.48v29.77Z"/><path class="cls-1" d="M216.62,433.55a19.72,19.72,0,0,1-1.36,7.38,17.89,17.89,0,0,1-3.86,5.93,17.63,17.63,0,0,1-6,3.95,21.8,21.8,0,0,1-15.53,0,17.42,17.42,0,0,1-9.87-9.88,20.54,20.54,0,0,1,0-14.75,17.59,17.59,0,0,1,3.86-5.92,17.81,17.81,0,0,1,6-3.93,20.29,20.29,0,0,1,7.77-1.44,20,20,0,0,1,7.76,1.45,17.53,17.53,0,0,1,9.84,9.86A19.64,19.64,0,0,1,216.62,433.55Zm-8.67,0a15.68,15.68,0,0,0-.71-4.87,10.29,10.29,0,0,0-2-3.68,8.74,8.74,0,0,0-3.22-2.31,12.25,12.25,0,0,0-8.71,0,8.81,8.81,0,0,0-3.24,2.31,10.29,10.29,0,0,0-2,3.68,15.69,15.69,0,0,0-.7,4.87,15.91,15.91,0,0,0,.7,4.91,10.33,10.33,0,0,0,2,3.67,8.67,8.67,0,0,0,3.24,2.3,12.55,12.55,0,0,0,8.71,0,8.6,8.6,0,0,0,3.22-2.3,10.33,10.33,0,0,0,2-3.67A15.9,15.9,0,0,0,208,433.55Z"/><path class="cls-1" d="M239.17,432.9h13v15.42a19.07,19.07,0,0,1-6,3,23.52,23.52,0,0,1-6.64.93,22.89,22.89,0,0,1-8.21-1.42,18.8,18.8,0,0,1-6.33-3.91,17.05,17.05,0,0,1-4.06-5.92,19,19,0,0,1-1.44-7.44,20.31,20.31,0,0,1,1.36-7.51,16.84,16.84,0,0,1,3.88-5.9,17.44,17.44,0,0,1,6.09-3.87,22,22,0,0,1,8-1.38,23.18,23.18,0,0,1,4.28.38,21.18,21.18,0,0,1,3.7,1,16.93,16.93,0,0,1,3.1,1.55,17.45,17.45,0,0,1,2.51,2L250,423.55a2.34,2.34,0,0,1-1.49,1.07,2.58,2.58,0,0,1-2-.45c-.67-.4-1.3-.75-1.89-1a11.61,11.61,0,0,0-1.82-.71,11,11,0,0,0-2-.4,17.76,17.76,0,0,0-2.3-.13,10.53,10.53,0,0,0-4.29.84A9.17,9.17,0,0,0,231,425.1a10.58,10.58,0,0,0-2.07,3.68,14.88,14.88,0,0,0-.73,4.77,15.29,15.29,0,0,0,.81,5.17,10.69,10.69,0,0,0,2.26,3.81,9.61,9.61,0,0,0,3.52,2.37,12,12,0,0,0,4.52.82,11.76,11.76,0,0,0,2.77-.3,15.63,15.63,0,0,0,2.42-.81v-5.54h-3.61a1.73,1.73,0,0,1-1.25-.43,1.4,1.4,0,0,1-.45-1.07Z"/><path class="cls-1" d="M278,422.72a3.1,3.1,0,0,1-.79.9,1.78,1.78,0,0,1-1.07.3,2.63,2.63,0,0,1-1.24-.36l-1.5-.82a12.32,12.32,0,0,0-1.92-.81,7.76,7.76,0,0,0-2.46-.37,5.28,5.28,0,0,0-3.55,1,3.45,3.45,0,0,0-1.16,2.75,2.54,2.54,0,0,0,.7,1.83,6.13,6.13,0,0,0,1.84,1.25,20.89,20.89,0,0,0,2.61,1c1,.29,2,.62,3,1a28,28,0,0,1,3,1.26,10.27,10.27,0,0,1,2.6,1.86,8.76,8.76,0,0,1,1.85,2.74,9.92,9.92,0,0,1,.7,3.9,12.69,12.69,0,0,1-.88,4.75,11,11,0,0,1-2.55,3.84,11.77,11.77,0,0,1-4.11,2.59,15.52,15.52,0,0,1-5.55.94,18.17,18.17,0,0,1-3.48-.35,22,22,0,0,1-3.42-1,20.85,20.85,0,0,1-3.11-1.52,13.07,13.07,0,0,1-2.53-2l2.51-4a2.54,2.54,0,0,1,.78-.71,2,2,0,0,1,1.07-.29,2.93,2.93,0,0,1,1.52.47l1.73,1.06a14.38,14.38,0,0,0,2.22,1.05,8.27,8.27,0,0,0,3,.48,5.61,5.61,0,0,0,3.58-1,3.85,3.85,0,0,0,1.28-3.22,3,3,0,0,0-.7-2.08,5.36,5.36,0,0,0-1.84-1.33,16.34,16.34,0,0,0-2.6-.93c-1-.27-2-.57-3-.89a23.32,23.32,0,0,1-3-1.2A9.43,9.43,0,0,1,259,433a8.76,8.76,0,0,1-1.85-2.9,11.58,11.58,0,0,1-.7-4.31,10.22,10.22,0,0,1,.83-4,10.48,10.48,0,0,1,2.43-3.49,12.18,12.18,0,0,1,3.94-2.44,14.5,14.5,0,0,1,5.34-.92,19.5,19.5,0,0,1,3.27.27,16.35,16.35,0,0,1,5.7,2,11.92,11.92,0,0,1,2.22,1.61Z"/><path class="cls-1" d="M310.67,415.3a25.45,25.45,0,0,1,6.44.7,12.38,12.38,0,0,1,4.34,2,7.51,7.51,0,0,1,2.45,3.11,10.5,10.5,0,0,1,.76,4.09,7.82,7.82,0,0,1-.35,2.37,6.76,6.76,0,0,1-1.1,2.13,8.73,8.73,0,0,1-1.94,1.82,11.87,11.87,0,0,1-2.83,1.43,10,10,0,0,1,5.34,2.83,7.32,7.32,0,0,1,1.73,5.07,10.51,10.51,0,0,1-.9,4.34,9.92,9.92,0,0,1-2.64,3.49,12.54,12.54,0,0,1-4.31,2.34,18.66,18.66,0,0,1-5.84.84H297.23V415.3Zm-5,6.34v9h4.42a15,15,0,0,0,2.53-.2,5.32,5.32,0,0,0,1.92-.7,3.36,3.36,0,0,0,1.2-1.38,5.13,5.13,0,0,0,.41-2.21,6.41,6.41,0,0,0-.32-2.17,3,3,0,0,0-1-1.39,4.2,4.2,0,0,0-1.71-.75,11.86,11.86,0,0,0-2.47-.23Zm6,23.8a7.29,7.29,0,0,0,2.74-.43,4.23,4.23,0,0,0,1.67-1.1,3.59,3.59,0,0,0,.83-1.53,6.74,6.74,0,0,0,.23-1.73,5.58,5.58,0,0,0-.27-1.8,2.91,2.91,0,0,0-.9-1.36,4.33,4.33,0,0,0-1.69-.85,10,10,0,0,0-2.66-.3H305.7v9.1Z"/><path class="cls-1" d="M346.05,445.14a7.9,7.9,0,0,0,3.05-.56,6.29,6.29,0,0,0,2.27-1.62,7.19,7.19,0,0,0,1.42-2.57,11.41,11.41,0,0,0,.48-3.45V415.3h8.48v21.64a16.84,16.84,0,0,1-1.09,6.17,14,14,0,0,1-3.12,4.84,14.16,14.16,0,0,1-4.94,3.16,19.61,19.61,0,0,1-13.12,0,14.16,14.16,0,0,1-4.94-3.16,13.84,13.84,0,0,1-3.11-4.84,17,17,0,0,1-1.08-6.17V415.3h8.48v21.61a11.1,11.1,0,0,0,.49,3.45,7.44,7.44,0,0,0,1.41,2.59,6.15,6.15,0,0,0,2.28,1.63A7.85,7.85,0,0,0,346.05,445.14Z"/><path class="cls-1" d="M400.27,415.3v36.54h-4.41a3.8,3.8,0,0,1-1.64-.32,3.9,3.9,0,0,1-1.32-1.09l-17.23-21.79c.07.65.11,1.28.14,1.89s0,1.19,0,1.72v19.59h-7.48V415.3h4.46a6.19,6.19,0,0,1,.93.05,2.34,2.34,0,0,1,.68.18,3,3,0,0,1,.58.39,9.23,9.23,0,0,1,.63.68L393,438.54c-.08-.7-.14-1.38-.17-2s-.05-1.28-.05-1.87V415.3Z"/><path class="cls-1" d="M439.25,415.3v36.54h-4.42a3.8,3.8,0,0,1-1.64-.32,4.1,4.1,0,0,1-1.32-1.09l-17.23-21.79c.07.65.12,1.28.14,1.89s0,1.19,0,1.72v19.59h-7.47V415.3h4.46a6.27,6.27,0,0,1,.93.05,2.27,2.27,0,0,1,.67.18,2.68,2.68,0,0,1,.58.39,9.23,9.23,0,0,1,.63.68L432,438.54q-.13-1.05-.18-2c0-.66-.05-1.28-.05-1.87V415.3Z"/><path class="cls-1" d="M463.82,437.94v13.9h-8.47v-13.9L442.1,415.3h7.48a2.71,2.71,0,0,1,1.74.51,4.14,4.14,0,0,1,1.07,1.32l5.16,10.63c.44.84.83,1.62,1.18,2.34s.66,1.45.93,2.15c.25-.72.54-1.44.87-2.17s.7-1.5,1.14-2.32l5.11-10.63a4.94,4.94,0,0,1,.43-.66,3.25,3.25,0,0,1,.59-.58,2.77,2.77,0,0,1,1.74-.59h7.52Z"/><path class="cls-1" d="M221.88,268.48H209.4v64.19h13.31q26.14,0,26.14-29.92Q248.85,268.47,221.88,268.48Z"/><path class="cls-1" d="M371,198.52H357.79v56.65h14.37q19.89,0,19.9-29.45Q392.06,198.53,371,198.52Z"/><path class="cls-1" d="M356.57,287c.24-.07.47-.11.66-.16a76.8,76.8,0,0,1,8.91-11.69,37.48,37.48,0,0,1,3.18-3c1.2-2.73,2-4.78,1.93-5.1C370.54,264.83,359,272.39,356.57,287Z"/><path class="cls-1" d="M118.21,143V388.68H477.06V143ZM242.26,346H162.75V185.21h71.5q55.23,0,55.24,39.45,0,28-33.34,35.93,40.17,8,40.17,42.63Q296.32,346,242.26,346Zm146.57-3.52c-3.24.88-6.14-1-11.2-1a7,7,0,0,0-6.41,4.51h-5.17a33.31,33.31,0,0,0,6.67-4.9c3-2.84,9.43-1,9.43-1-6.09-5.5-.1-12.08-.1-12.08C376.45,338.33,392.07,341.58,388.83,342.46Zm13.87,2.91c.46-1.58.3-3.5,2-3.5,2.95,0,7.66,1.17,7.66-5s-6.48-2.65-6.48-2.65c6.48-22.1-20.33-27.11-25.34-27.11S370.26,301.79,370,298s-4.13-8.55-4.13-8.55c8.56-5.89,13.94-18.94,12.39-19.74s-6.78,2.5-10.81,6.72a76,76,0,0,0-9.09,12.05s-4.57.66-7.22,3.31-3.24,5.9-5,7.08-4.12,8.25,5.89,9.72,6.78,4.13,5.89,7.07-1.41,8.55,1.21,12.38,6.85,10.63,4.79,12.68c-1.57,1.57-3.86,3.8-4,5.3H311.15V185.21h71.49q55.23,0,55.24,39.45,0,28-33.34,35.93,40.17,8,40.17,42.63Q444.71,340.92,402.7,345.37Z"/><path class="cls-1" d="M243.67,225.72q0-27.19-21.08-27.2H209.4v56.65h14.36Q243.67,255.17,243.67,225.72Z"/></svg>